<?xml version="1.0" encoding="UTF-8" standalone="no"?><svg xmlns="http://www.w3.org/2000/svg" xmlns:xlink="http://www.w3.org/1999/xlink" contentStyleType="text/css" height="570px" preserveAspectRatio="none" style="width:460px;height:570px;background:#FFFFFF;" version="1.1" viewBox="0 0 460 570" width="460px" zoomAndPan="magnify"><defs/><g><!--MD5=[fea3dc74c7473bae0133d22265a91e2f]
class Cell--><g id="elem_Cell"><rect codeLine="1" fill="#F1F1F1" height="96.8906" id="Cell" rx="2.5" ry="2.5" style="stroke:#181818;stroke-width:0.5;" width="181" x="139.5" y="467"/><ellipse cx="212.25" cy="483" fill="#ADD1B2" rx="11" ry="11" style="stroke:#181818;stroke-width:1.0;"/><path d="M214.5938,478.6719 C213.6563,478.2344 213.0625,478.0938 212.1875,478.0938 C209.5625,478.0938 207.5625,480.1719 207.5625,482.8906 L207.5625,484.0156 C207.5625,486.5938 209.6719,488.4844 212.5625,488.4844 C213.7813,488.4844 214.9375,488.1875 215.6875,487.6406 C216.2656,487.2344 216.5938,486.7813 216.5938,486.3906 C216.5938,485.9375 216.2031,485.5469 215.7344,485.5469 C215.5156,485.5469 215.3125,485.625 215.125,485.8125 C214.6719,486.2969 214.6719,486.2969 214.4844,486.3906 C214.0625,486.6563 213.375,486.7813 212.6094,486.7813 C210.5625,486.7813 209.2656,485.6875 209.2656,483.9844 L209.2656,482.8906 C209.2656,481.1094 210.5156,479.7969 212.25,479.7969 C212.8281,479.7969 213.4375,479.9531 213.9063,480.2031 C214.3906,480.4844 214.5625,480.7031 214.6563,481.1094 C214.7188,481.5156 214.75,481.6406 214.8906,481.7656 C215.0313,481.9063 215.2656,482.0156 215.4844,482.0156 C215.75,482.0156 216.0156,481.875 216.1875,481.6563 C216.2969,481.5 216.3281,481.3125 216.3281,480.8906 L216.3281,479.4688 C216.3281,479.0313 216.3125,478.9063 216.2188,478.75 C216.0625,478.4844 215.7813,478.3438 215.4844,478.3438 C215.1875,478.3438 214.9844,478.4375 214.7656,478.75 L214.5938,478.6719 Z " fill="#000000"/><text fill="#000000" font-family="sans-serif" font-size="14" lengthAdjust="spacing" textLength="27" x="232.75" y="487.8467">Cell</text><line style="stroke:#181818;stroke-width:0.5;" x1="140.5" x2="319.5" y1="499" y2="499"/><rect fill="none" height="6" style="stroke:#C82930;stroke-width:1.0;" width="6" x="147.5" y="507"/><text fill="#000000" font-family="sans-serif" font-size="14" lengthAdjust="spacing" textLength="155" x="159.5" y="515.9951">«get, set» Value : int?</text><rect fill="none" height="6" style="stroke:#C82930;stroke-width:1.0;" width="6" x="147.5" y="523.2969"/><text fill="#000000" font-family="sans-serif" font-size="14" lengthAdjust="spacing" textLength="149" x="159.5" y="532.292">«get» IsEmpty : bool</text><line style="stroke:#181818;stroke-width:0.5;" x1="140.5" x2="319.5" y1="539.5938" y2="539.5938"/><ellipse cx="150.5" cy="550.5938" fill="#84BE84" rx="3" ry="3" style="stroke:#038048;stroke-width:1.0;"/><text fill="#000000" font-family="sans-serif" font-size="14" lengthAdjust="spacing" textLength="37" x="159.5" y="556.5889">Cell()</text></g><!--MD5=[638732a4d9fb0c1bc21919cc2182dbf5]
class INotifyPropertyChanged--><g id="elem_INotifyPropertyChanged"><rect codeLine="8" fill="#F1F1F1" height="48" id="INotifyPropertyChanged" rx="2.5" ry="2.5" style="stroke:#181818;stroke-width:0.5;" width="201" x="129.5" y="7"/><ellipse cx="144.5" cy="23" fill="#B4A7E5" rx="11" ry="11" style="stroke:#181818;stroke-width:1.0;"/><path d="M145.4531,19.7813 L147.1719,19.7813 C147.5625,19.7813 147.75,19.75 147.875,19.6719 C148.1406,19.5156 148.2813,19.2344 148.2813,18.9375 C148.2813,18.6719 148.1719,18.4063 147.9375,18.2344 C147.7656,18.125 147.625,18.0938 147.1719,18.0938 L142.0313,18.0938 C141.5938,18.0938 141.4688,18.1094 141.3125,18.2031 C141.0625,18.3594 140.9063,18.6563 140.9063,18.9375 C140.9063,19.2188 141.0469,19.4688 141.2656,19.6406 C141.4219,19.75 141.6094,19.7813 142.0313,19.7813 L143.75,19.7813 L143.75,26.2969 L142.0313,26.2969 C141.5938,26.2969 141.4688,26.3125 141.3125,26.4219 C141.0625,26.5781 140.9063,26.8594 140.9063,27.1563 C140.9063,27.4063 141.0469,27.6719 141.2656,27.8281 C141.4219,27.9531 141.625,28 142.0313,28 L147.1719,28 C147.9219,28 148.2813,27.7188 148.2813,27.1563 C148.2813,26.875 148.1719,26.625 147.9375,26.4531 C147.7656,26.3281 147.625,26.2969 147.1719,26.2969 L145.4531,26.2969 L145.4531,19.7813 Z " fill="#000000"/><text fill="#000000" font-family="sans-serif" font-size="14" font-style="italic" lengthAdjust="spacing" textLength="169" x="158.5" y="27.8467">INotifyPropertyChanged</text><line style="stroke:#181818;stroke-width:0.5;" x1="130.5" x2="329.5" y1="39" y2="39"/><line style="stroke:#181818;stroke-width:0.5;" x1="130.5" x2="329.5" y1="47" y2="47"/></g><!--MD5=[1f24f7b92150e3316908f7910ce81742]
class Grid--><g id="elem_Grid"><rect codeLine="10" fill="#F1F1F1" height="292.4531" id="Grid" rx="2.5" ry="2.5" style="stroke:#181818;stroke-width:0.5;" width="446" x="7" y="115"/><ellipse cx="210.75" cy="131" fill="#ADD1B2" rx="11" ry="11" style="stroke:#181818;stroke-width:1.0;"/><path d="M213.0938,126.6719 C212.1563,126.2344 211.5625,126.0938 210.6875,126.0938 C208.0625,126.0938 206.0625,128.1719 206.0625,130.8906 L206.0625,132.0156 C206.0625,134.5938 208.1719,136.4844 211.0625,136.4844 C212.2813,136.4844 213.4375,136.1875 214.1875,135.6406 C214.7656,135.2344 215.0938,134.7813 215.0938,134.3906 C215.0938,133.9375 214.7031,133.5469 214.2344,133.5469 C214.0156,133.5469 213.8125,133.625 213.625,133.8125 C213.1719,134.2969 213.1719,134.2969 212.9844,134.3906 C212.5625,134.6563 211.875,134.7813 211.1094,134.7813 C209.0625,134.7813 207.7656,133.6875 207.7656,131.9844 L207.7656,130.8906 C207.7656,129.1094 209.0156,127.7969 210.75,127.7969 C211.3281,127.7969 211.9375,127.9531 212.4063,128.2031 C212.8906,128.4844 213.0625,128.7031 213.1563,129.1094 C213.2188,129.5156 213.25,129.6406 213.3906,129.7656 C213.5313,129.9063 213.7656,130.0156 213.9844,130.0156 C214.25,130.0156 214.5156,129.875 214.6875,129.6563 C214.7969,129.5 214.8281,129.3125 214.8281,128.8906 L214.8281,127.4688 C214.8281,127.0313 214.8125,126.9063 214.7188,126.75 C214.5625,126.4844 214.2813,126.3438 213.9844,126.3438 C213.6875,126.3438 213.4844,126.4375 213.2656,126.75 L213.0938,126.6719 Z " fill="#000000"/><text fill="#000000" font-family="sans-serif" font-size="14" lengthAdjust="spacing" textLength="30" x="231.25" y="135.8467">Grid</text><line style="stroke:#181818;stroke-width:0.5;" x1="8" x2="452" y1="147" y2="147"/><rect fill="none" height="6" style="stroke:#C82930;stroke-width:1.0;" width="6" x="15" y="155"/><text fill="#000000" font-family="sans-serif" font-size="14" lengthAdjust="spacing" textLength="164" x="27" y="163.9951">«get, set» Cells : Cell[,]</text><rect fill="none" height="6" style="stroke:#C82930;stroke-width:1.0;" width="6" x="15" y="171.2969"/><text fill="#000000" font-family="sans-serif" font-size="14" lengthAdjust="spacing" textLength="149" x="27" y="180.292">«get» IsSolved : bool</text><rect fill="none" height="6" style="stroke:#C82930;stroke-width:1.0;" width="6" x="15" y="187.5938"/><text fill="#000000" font-family="sans-serif" font-size="14" lengthAdjust="spacing" textLength="146" x="27" y="196.5889">Chrono : StopWatch</text><rect fill="none" height="6" style="stroke:#C82930;stroke-width:1.0;" width="6" x="15" y="203.8906"/><text fill="#000000" font-family="sans-serif" font-size="14" lengthAdjust="spacing" textLength="138" x="27" y="212.8857">«get» SleepMs : int</text><rect fill="none" height="6" style="stroke:#C82930;stroke-width:1.0;" width="6" x="15" y="220.1875"/><text fill="#000000" font-family="sans-serif" font-size="14" lengthAdjust="spacing" textLength="159" x="27" y="229.1826">«get» TryCounter : int</text><ellipse cx="18" cy="239.4844" fill="none" rx="3" ry="3" style="stroke:#038048;stroke-width:1.0;"/><text fill="#000000" font-family="sans-serif" font-size="14" lengthAdjust="spacing" textLength="417" x="27" y="245.4795">event PropertyChanged : PropertyChangedEventHandler?</text><ellipse cx="18" cy="255.7813" fill="none" rx="3" ry="3" style="stroke:#038048;stroke-width:1.0;"/><text fill="#000000" font-family="sans-serif" font-size="14" lengthAdjust="spacing" textLength="198" x="27" y="261.7764">this[row : int, col : int] : int?</text><line style="stroke:#181818;stroke-width:0.5;" x1="8" x2="452" y1="269.0781" y2="269.0781"/><ellipse cx="18" cy="280.0781" fill="#84BE84" rx="3" ry="3" style="stroke:#038048;stroke-width:1.0;"/><text fill="#000000" font-family="sans-serif" font-size="14" lengthAdjust="spacing" textLength="40" x="27" y="286.0732">Grid()</text><ellipse cx="18" cy="296.375" fill="#84BE84" rx="3" ry="3" style="stroke:#038048;stroke-width:1.0;"/><text fill="#000000" font-family="sans-serif" font-size="14" lengthAdjust="spacing" textLength="361" x="27" y="302.3701">OnPropertyChanged(propertyName : string) : void</text><ellipse cx="18" cy="312.6719" fill="#84BE84" rx="3" ry="3" style="stroke:#038048;stroke-width:1.0;"/><text fill="#000000" font-family="sans-serif" font-size="14" lengthAdjust="spacing" textLength="90" x="27" y="318.667">Clear() : void</text><ellipse cx="18" cy="328.9688" fill="#84BE84" rx="3" ry="3" style="stroke:#038048;stroke-width:1.0;"/><text fill="#000000" font-family="sans-serif" font-size="14" lengthAdjust="spacing" textLength="389" x="27" y="334.9639">GenerateRandom(maxGeneratedNum = 10 : int) : void</text><ellipse cx="18" cy="345.2656" fill="#84BE84" rx="3" ry="3" style="stroke:#038048;stroke-width:1.0;"/><text fill="#000000" font-family="sans-serif" font-size="14" lengthAdjust="spacing" textLength="420" x="27" y="351.2607">async SolveAsync(token : CancellationTokenSource) : Task</text><ellipse cx="18" cy="361.5625" fill="#84BE84" rx="3" ry="3" style="stroke:#038048;stroke-width:1.0;"/><text fill="#000000" font-family="sans-serif" font-size="14" lengthAdjust="spacing" textLength="92" x="27" y="367.5576">Solve() : void</text><rect fill="#F24D5C" height="6" style="stroke:#C82930;stroke-width:1.0;" width="6" x="15" y="374.8594"/><text fill="#000000" font-family="sans-serif" font-size="14" lengthAdjust="spacing" textLength="323" x="27" y="383.8545">IsSafe(row : int, col : int, number : int?) : bool</text><rect fill="#F24D5C" height="6" style="stroke:#C82930;stroke-width:1.0;" width="6" x="15" y="391.1563"/><text fill="#000000" font-family="sans-serif" font-size="14" lengthAdjust="spacing" textLength="147" x="27" y="400.1514">PopulateGrid() : void</text></g><!--MD5=[82429eb4f0d2c56b3cb1f8926261783c]
reverse link Grid to Cell--><g id="link_Grid_Cell"><path codeLine="29" d="M230,420.064 C230,436.904 230,452.935 230,466.8514 " fill="none" id="Grid-backto-Cell" style="stroke:#181818;stroke-width:1.0;"/><polygon fill="#181818" points="230,407.051,226,413.051,230,419.051,234,413.051,230,407.051" style="stroke:#181818;stroke-width:1.0;"/></g><!--MD5=[896d84d655ca861256e94b1d82500d7b]
reverse link INotifyPropertyChanged to Grid--><g id="link_INotifyPropertyChanged_Grid"><path codeLine="30" d="M230,75.516 C230,87.32 230,100.783 230,114.937 " fill="none" id="INotifyPropertyChanged-backto-Grid" style="stroke:#181818;stroke-width:1.0;"/><polygon fill="none" points="223,75.117,230,55.117,237,75.117,223,75.117" style="stroke:#181818;stroke-width:1.0;"/></g><!--MD5=[745e504ba46cfb029a2ab1d4e74d54d2]
@startuml
class Cell
{
    - <<get, set>> Value : int?
    - <<get>> IsEmpty : bool
    + Cell()
}

interface INotifyPropertyChanged { }

class Grid
{
    - <<get, set>> Cells : Cell[,]
    - <<get>> IsSolved : bool
    - Chrono : StopWatch
    - <<get>> SleepMs : int
    - <<get>> TryCounter : int
    + event PropertyChanged : PropertyChangedEventHandler?
    + Grid()
    + OnPropertyChanged(propertyName : string) : void
    + Clear() : void
    + GenerateRandom(maxGeneratedNum = 10 : int) : void
    + async SolveAsync(token : CancellationTokenSource) : Task
    + Solve() : void
    - IsSafe(row : int, col : int, number : int?) : bool
    - PopulateGrid() : void
    + this[row : int, col : int] : int?
}

Grid *- - Cell
INotifyPropertyChanged <|- - Grid
@enduml

PlantUML version 1.2022.6beta5(Unknown compile time)
(GPL source distribution)
Java Runtime: Java(TM) SE Runtime Environment
JVM: Java HotSpot(TM) 64-Bit Server VM
Default Encoding: UTF-8
Language: en
Country: US
--></g></svg>